<svg width="227" height="89" viewBox="0 0 227 89" fill="none" xmlns="http://www.w3.org/2000/svg">
<g clip-path="url(#clip0_126_2)">
<path d="M33.7211 58.3882C33.1383 55.4589 28.6722 56.0599 28.6722 56.0599C28.6722 56.0599 30.8805 56.2323 30.8805 58.0151C30.8805 59.7969 28.2588 59.7868 28.2588 59.7868H20.1011H16.9107H16.8996H13.7081H5.55046C5.55046 59.7868 2.92872 59.7979 2.92872 58.0151C2.92872 56.2333 5.13703 56.0599 5.13703 56.0599C5.13703 56.0599 0.670994 55.4579 0.0881604 58.3882C-0.660045 62.1514 3.51155 62.9037 6.64353 62.9037C8.24884 62.9037 10.9059 62.9037 13.1152 62.9037H13.3542C12.6856 65.4336 11.1509 73.1416 14.4866 81.4343H13.8523C13.3159 81.4343 12.8823 81.8185 12.8823 82.2935C12.8823 82.7119 13.2271 83.0427 13.6738 83.1183L12.6624 84.8698L14.78 88.5373H14.7971H19.0151H19.0323L21.1498 84.8698L20.1384 83.1183C20.5851 83.0417 20.93 82.7109 20.93 82.2935C20.93 81.8185 20.4954 81.4343 19.96 81.4343H19.3257C22.6614 73.1426 21.1266 65.4336 20.4581 62.9037H20.6971C22.9064 62.9037 25.5634 62.9037 27.1687 62.9037C30.2977 62.9047 34.4693 62.1514 33.7211 58.3882Z" fill="#111111"/>
<path d="M16.8995 58.9116C16.9065 58.9116 16.9045 58.9116 16.9106 58.9116C16.958 58.9116 16.9953 58.9116 16.9953 58.9116C16.9953 58.9116 18.7619 58.9116 20.9229 58.9116C20.8623 53.3918 20.2583 7.63028 16.9106 0.0272257V0C16.9086 0.00403345 16.9065 0.00907528 16.9045 0.0131087C16.9025 0.00907528 16.9005 0.00403345 16.8995 0V0.0272257C13.5517 7.63028 12.9487 53.3918 12.8872 58.9116C15.0481 58.9116 16.8148 58.9116 16.8148 58.9116C16.8148 58.9116 16.8511 58.9116 16.8995 58.9116ZM16.9045 29.3292L17.8685 58.5546H16.9096H16.8985H15.9395L16.9045 29.3292Z" fill="#111111"/>
<path d="M45.9166 24.48C45.9166 26.2406 45.8433 45.1667 45.9166 46.8539C45.9533 47.2574 45.9533 47.6608 45.9533 48.0643C45.9533 48.3577 46.1367 48.5411 46.3935 48.6511C46.6135 48.7245 46.907 48.7979 47.127 48.7979C48.1907 48.6878 49.3277 48.7979 50.4281 48.7612C52.3354 48.9079 54.0593 48.4678 55.7098 47.5875C57.2503 46.7072 58.0939 45.13 58.6808 43.4795C59.1576 42.0857 59.0842 40.4352 58.8275 39.0047C58.6074 37.7209 58.0205 36.4739 57.2503 35.4469C57.1403 35.3002 55.5631 34.3098 55.6364 34.2365C56.5901 32.8794 57.9472 31.7423 58.1306 30.0551C58.2773 28.588 57.9472 27.0842 57.4337 25.7271C57.1036 24.8468 56.6634 24.0032 55.9666 23.343C54.7928 22.2426 53.0323 21.7658 51.4918 21.6191C49.9146 21.4724 48.4475 21.5824 46.8703 21.509C46.3201 21.509 46.0634 21.7291 46.0634 22.316C46.0634 23.0862 45.9166 23.7098 45.9166 24.48ZM50.4281 31.1555C50.3914 30.752 50.4281 27.5243 50.3547 26.3139C50.3181 25.8738 50.5748 25.6537 51.0516 25.7637C51.4184 25.8371 51.7118 25.8738 52.0053 26.0939C52.9222 26.7907 53.6191 27.6344 53.6558 28.8081C53.6558 29.3949 53.6558 29.9818 53.4357 30.532C53.179 31.1922 52.8122 31.7057 52.152 32.0358C51.7118 32.2558 51.3084 32.5126 50.8682 32.696C50.6482 32.7693 50.4281 32.6593 50.3914 32.4392C50.3914 31.9991 50.4281 31.1555 50.4281 31.1555ZM54.0959 40.8753C54.0959 41.0587 54.0593 41.3888 54.0593 41.7189C54.0226 42.8193 52.5921 44.213 50.9416 44.2497C50.8316 44.2497 50.6482 44.1397 50.6115 44.0297C50.5381 43.8096 50.4648 43.5528 50.4648 43.2961C50.4281 42.159 50.4648 41.0587 50.4648 39.8483C50.5748 39.0781 50.5015 38.2711 50.5015 37.4642C50.5381 36.8407 50.6848 36.7306 51.2717 36.6206C52.152 36.5106 52.9589 36.8773 53.3624 37.5742C53.8392 38.4178 54.0226 39.3348 54.0959 40.2884V40.8753ZM63.3958 25.2502C63.3591 27.5243 63.5792 44.1397 63.5425 45.3501C63.5425 46.4871 63.5425 47.6241 63.5792 48.7612C63.5792 48.9446 63.6892 49.128 63.8726 49.128C66.4401 49.238 68.9709 49.0179 71.5384 49.0546C72.382 49.0913 73.2256 49.0546 74.0326 49.0546C74.8395 49.0179 74.9128 48.6878 74.8762 48.0276C74.8395 47.0006 74.8395 46.0837 74.8395 45.0933C74.8028 44.5798 74.5094 44.3964 74.0692 44.3964C72.5654 44.4331 71.0616 44.3598 69.5578 44.4331C69.301 44.4698 69.0443 44.4698 68.7875 44.4698C68.3474 44.4331 68.2374 44.3231 68.2007 43.8463V43.2961C68.0906 40.2518 68.3107 37.0974 68.3107 34.0531C68.274 31.4856 68.3107 29.1749 68.274 26.9008C68.274 25.9105 68.274 24.9201 68.2374 23.9665C68.2007 23.3796 68.2374 22.7561 68.0906 22.1693C68.0173 21.9492 67.9072 21.6558 67.6505 21.6558H64.2027C63.6159 21.6558 63.4325 22.0592 63.3958 22.6461V25.2502ZM82.5988 48.8712C82.7089 48.9079 83.039 48.9079 83.3691 48.9079C84.1026 48.9079 84.3227 46.267 84.3961 45.7169C84.4328 45.2767 84.5428 45.24 84.9096 45.1667C86.7435 44.9466 87.6605 45.0933 89.4944 45.13C89.8979 45.13 90.1179 45.3134 90.228 45.6435L90.4847 46.4871C90.7048 47.1107 90.8882 47.8809 91.1082 48.5044C91.255 48.9446 91.2916 48.9079 91.7318 48.9079C92.3186 48.9079 94.446 48.9079 95.0695 48.8712C95.9131 48.8712 95.3263 47.1473 95.2162 46.8539C94.8861 45.8269 94.8128 44.7632 94.4827 43.7362C94.336 43.2961 90.1546 23.453 89.9712 22.3526C89.7145 21.6924 89.9345 21.6558 89.3477 21.6558C88.1006 21.6558 86.7802 21.7291 85.4964 21.6558C84.9829 21.6558 85.0196 21.8025 84.9463 22.3526C84.8729 22.8661 83.5525 28.698 83.039 31.1188C82.3788 34.1631 81.7919 37.0974 81.0583 40.1051C80.8016 41.1687 79.041 48.8345 79.2611 48.8712C79.3711 48.9446 79.5545 48.9079 79.7012 48.9079C80.6182 48.9079 81.4618 48.9079 82.5988 48.8712ZM87.4037 40.5452H86.6335C85.6065 40.5452 85.5698 40.5452 85.8265 39.4815C86.0099 38.6746 87.0003 34.3098 87.2203 33.2462C87.257 33.1728 87.3304 33.0995 87.367 33.0995C87.4404 33.0995 87.5138 33.1728 87.5504 33.2095C87.6971 33.6496 87.8439 34.75 87.9906 35.1901C88.3207 36.5839 88.5407 37.7576 88.8709 39.2614C89.201 40.5819 89.0542 40.5819 88.394 40.5819C88.0639 40.5819 87.7338 40.5452 87.4037 40.5452ZM115.3 42.4158C115.52 41.939 115.703 41.4622 115.886 40.9853C116.29 39.8116 116.363 38.6012 116.473 37.3908C116.693 34.8233 116.62 32.2192 115.96 29.725C115.153 26.534 113.099 23.5997 110.018 22.2426C108.624 21.6191 107.047 21.5457 105.543 21.5824C103.966 21.5824 102.352 21.509 100.775 21.6558C100.335 21.6924 100.115 21.9125 100.041 22.316C99.9679 22.7561 99.8946 23.1963 99.8946 23.5997C99.9679 25.8371 99.8946 32.4759 99.9679 33.5763C100.005 34.5666 99.8946 35.777 99.8946 36.7673C99.9313 39.2248 99.8946 41.7189 99.8946 44.1764C99.8946 45.2034 99.8579 46.1937 99.8579 47.2207C99.8579 48.321 99.4544 48.7979 102.462 48.7979C105.14 48.7979 107.927 48.5778 110.458 47.6241C112.805 46.7805 114.273 44.6165 115.3 42.4158ZM104.626 38.6012V34.1998C104.626 31.4122 104.699 29.615 104.589 27.2676V26.8274C104.626 26.0572 104.736 26.0205 105.543 26.0205C106.607 25.9838 107.377 26.2406 108.294 26.6074C109.211 26.9741 109.724 27.7811 110.201 28.5513C111.118 30.0551 111.485 31.7057 111.558 33.4296C111.595 34.4199 111.632 35.4102 111.632 36.4005C111.632 41.0954 108.881 44.3598 106.46 44.3598C104.846 44.3598 104.589 44.4698 104.589 43.4061C104.589 42.3058 104.663 41.2054 104.663 40.1051C104.626 39.6282 104.626 39.1147 104.626 38.6012ZM120.968 41.6455H120.932C120.932 42.5625 120.895 43.5162 120.932 44.4698C120.968 45.6435 121.042 46.8172 121.115 47.9909C121.115 48.3944 121.225 48.5044 121.592 48.5778C122.362 48.7612 123.096 48.7979 123.866 48.7979C125.846 48.7245 127.827 48.8712 129.808 48.7979C130.615 48.7612 130.981 48.8345 131.788 48.6878C132.522 48.5411 132.779 48.1376 132.779 47.0373C132.705 46.3404 132.742 46.047 132.742 45.2034C132.742 43.993 131.898 43.5895 131.165 43.6262C130.651 43.6629 128.194 43.5895 127.204 43.5895C125.553 43.6262 125.81 43.8463 125.81 42.1224C125.81 40.7286 125.846 38.9313 125.846 37.5009C125.846 36.7306 125.92 36.4739 126.653 36.4739H131.238C131.972 36.5839 132.485 36.0704 132.485 35.3002C132.485 34.5299 132.559 34.4932 132.559 33.723L132.449 32.6226C132.375 31.9991 132.155 31.779 131.532 31.779C131.128 31.779 130.725 31.8157 130.321 31.8524C128.744 31.9624 128.011 31.7423 126.47 31.8524C125.957 31.8524 125.883 31.779 125.846 31.3022C125.7 29.8717 125.846 28.2946 125.993 26.8641C126.03 26.2772 126.177 26.1672 126.727 26.1305L131.898 26.0939C132.595 26.0205 132.815 26.0572 132.779 25.3603C132.705 24.2966 132.815 23.1963 132.705 22.1326C132.632 21.5457 132.449 21.4357 131.788 21.4357C130.688 21.4724 130.431 21.4724 129.331 21.5457C128.231 21.5824 123.829 21.5824 122.765 21.5824C121.225 21.5824 121.115 21.4724 121.078 23.343C121.005 24.8101 121.042 26.3139 121.042 27.8177C121.042 30.3852 120.895 39.5916 120.968 41.6455ZM151.615 25.9838C151.652 24.7734 151.615 23.7831 151.615 22.6094C151.615 21.2523 149.158 21.399 148.277 21.4357C144.353 21.6924 140.611 24.1866 138.814 27.5977C138.301 28.588 137.934 29.615 137.677 30.6787C137.054 33.1728 137.017 35.8137 137.31 38.3445C137.567 40.7286 138.191 43.1127 139.658 45.02C142.189 48.3577 146.847 49.5314 150.845 48.9079C151.028 48.8712 151.212 48.8345 151.358 48.7245C151.468 48.6511 151.578 48.5044 151.578 48.3577L151.688 46.267C151.725 45.6068 151.688 45.6435 151.688 44.9833C151.688 44.103 149.854 44.7632 148.717 44.7632C147.617 44.7632 146.443 44.7265 145.453 44.213C143.692 43.2227 142.702 41.2421 142.152 39.3715C141.528 37.3542 141.382 35.1901 141.748 33.1361C142.189 30.4586 143.472 27.3776 146.297 26.4606C147.91 25.9105 149.634 26.0939 151.248 26.2772C151.468 26.3139 151.615 26.1672 151.615 25.9838ZM160.585 46.4138C160.585 45.4601 160.585 39.4448 160.621 38.968C160.658 38.858 160.731 38.6379 160.878 38.6379C161.025 38.6379 161.098 38.7113 161.135 38.8213C162.602 41.6822 163.886 44.5432 165.206 47.3307C165.39 47.7342 165.793 48.9079 165.903 49.0179C166.05 49.238 166.307 49.1646 166.527 49.1646L170.561 49.2013C171.038 49.2013 171.148 48.9079 171.038 48.5044C170.745 47.4041 168.654 43.5162 168.177 42.5625C167.847 41.8289 165.646 37.5742 165.573 37.2441C165.5 37.0974 166.05 36.8407 166.123 36.7306C167.884 35.1535 169.461 33.5396 169.791 31.0821C170.158 28.6614 169.608 26.0205 168.03 24.0765C166.82 22.6461 165.243 21.8025 163.372 21.6924C162.235 21.6191 161.135 21.7291 159.998 21.6924C159.008 21.6558 158.311 21.6558 157.064 21.6558C156.477 21.6558 156.11 21.9859 156.073 22.6094V23.0495C156 25.8738 156.073 28.698 156.11 31.4856C156.11 35.7403 156.037 46.9639 156.037 48.5778C156.037 49.0546 156.11 49.1646 156.55 49.1646C156.807 49.1646 157.1 49.2013 157.357 49.2013C158.384 49.2013 159.008 49.1646 160.071 49.1646C160.878 49.1646 160.585 47.8442 160.585 46.4138ZM160.585 32.1091L160.621 28.4046C160.658 27.8544 160.475 26.7541 160.988 26.3506C161.685 25.8371 163.116 26.3506 163.739 26.7907C165.573 28.0378 165.426 31.1188 164.436 32.8427C163.959 33.6496 163.152 34.1265 162.235 34.3832C161.685 34.5299 160.658 34.7133 160.621 33.833C160.621 33.2462 160.585 32.1091 160.585 32.1091ZM178.797 48.8712C178.907 48.9079 179.238 48.9079 179.568 48.9079C180.301 48.9079 180.521 46.267 180.595 45.7169C180.631 45.2767 180.741 45.24 181.108 45.1667C182.942 44.9466 183.859 45.0933 185.693 45.13C186.096 45.13 186.317 45.3134 186.427 45.6435L186.683 46.4871C186.903 47.1107 187.087 47.8809 187.307 48.5044C187.454 48.9446 187.49 48.9079 187.93 48.9079C188.517 48.9079 190.645 48.9079 191.268 48.8712C192.112 48.8712 191.525 47.1473 191.415 46.8539C191.085 45.8269 191.011 44.7632 190.681 43.7362C190.535 43.2961 186.353 23.453 186.17 22.3526C185.913 21.6924 186.133 21.6558 185.546 21.6558C184.299 21.6558 182.979 21.7291 181.695 21.6558C181.182 21.6558 181.218 21.8025 181.145 22.3526C181.072 22.8661 179.751 28.698 179.238 31.1188C178.577 34.1631 177.991 37.0974 177.257 40.1051C177 41.1687 175.24 48.8345 175.46 48.8712C175.57 48.9446 175.753 48.9079 175.9 48.9079C176.817 48.9079 177.66 48.9079 178.797 48.8712ZM183.602 40.5452H182.832C181.805 40.5452 181.768 40.5452 182.025 39.4815C182.209 38.6746 183.199 34.3098 183.419 33.2462C183.456 33.1728 183.529 33.0995 183.566 33.0995C183.639 33.0995 183.712 33.1728 183.749 33.2095C183.896 33.6496 184.042 34.75 184.189 35.1901C184.519 36.5839 184.739 37.7576 185.069 39.2614C185.4 40.5819 185.253 40.5819 184.593 40.5819C184.263 40.5819 183.932 40.5452 183.602 40.5452ZM196.093 41.6455H196.057C196.057 42.5625 196.02 43.5162 196.057 44.4698C196.093 45.6435 196.13 46.8172 196.203 47.9909C196.24 48.3944 196.313 48.5044 196.717 48.5778C197.45 48.7612 198.221 48.7979 198.991 48.7979C200.971 48.7245 200.971 48.3944 200.971 47.0373C200.898 46.3404 200.935 46.047 200.935 45.2034C200.935 43.993 200.898 43.8463 200.898 42.1224C200.935 40.7286 200.935 38.9313 200.935 37.5009C200.935 36.7306 201.045 36.4739 201.742 36.4739H207.097C207.867 36.5839 207.574 36.0704 207.574 35.3002C207.574 34.5299 207.684 34.4932 207.647 33.723C207.647 33.3562 207.574 32.9894 207.537 32.6226C207.464 31.9991 207.243 31.779 206.62 31.779C206.216 31.779 206.583 31.8157 206.216 31.8524C204.639 31.9624 203.135 31.7423 201.558 31.8524C201.045 31.8524 200.971 31.779 200.935 31.3022C200.825 29.8717 200.935 28.2946 201.081 26.8641C201.155 26.2772 201.265 26.1672 201.815 26.1305L206.987 26.0939C207.72 26.0205 207.94 26.0572 207.867 25.3603C207.794 24.2966 207.94 23.1963 207.794 22.1326C207.72 21.5457 207.574 21.4357 206.913 21.4357C205.813 21.4724 205.556 21.4724 204.456 21.5457C203.356 21.5824 198.917 21.5824 197.854 21.5824C196.35 21.5824 196.203 21.4724 196.167 23.343C196.13 24.8101 196.13 26.3139 196.13 27.8177C196.13 30.3852 195.983 39.5916 196.093 41.6455ZM216.873 45.1667C216.91 46.3037 216.91 47.4408 216.947 48.5778C216.947 49.0913 216.983 49.1646 217.497 49.1646H220.798C221.495 49.1646 221.348 47.9909 221.312 47.3674L221.422 26.8274C221.422 26.2772 221.605 26.0939 222.339 26.0939H225.566C226.336 26.0939 226.153 24.7734 226.153 23.8565C226.153 23.0495 226.446 21.6558 225.566 21.6558C224.943 21.6558 218.964 21.6558 216.507 21.6924C215.296 21.6924 214.306 21.6558 213.096 21.6558C212.179 21.6558 212.215 22.3893 212.215 24.0032C212.215 25.0302 212.179 26.0572 213.059 26.0572C213.572 26.0572 215.663 26.0572 216.25 26.0939C216.617 26.0939 216.873 26.2039 216.947 26.6074C216.947 26.7174 216.983 26.8274 216.983 26.9375C216.983 29.5783 216.8 41.8656 216.873 45.1667Z" fill="#111111"/>
<path d="M45.8991 56.4804C45.8991 57.2952 45.8652 66.0542 45.8991 66.8351C45.9161 67.0218 45.9161 67.2085 45.9161 67.3953C45.9161 67.5311 46.001 67.6159 46.1198 67.6669C46.2216 67.7008 46.3574 67.7348 46.4593 67.7348C46.9516 67.6838 47.4778 67.7348 47.987 67.7178C48.8697 67.7857 49.6675 67.582 50.4314 67.1746C51.1444 66.7672 51.5348 66.0373 51.8064 65.2734C52.0271 64.6284 51.9931 63.8645 51.8743 63.2025C51.7724 62.6083 51.5008 62.0312 51.1444 61.5559C51.0934 61.488 50.3635 61.0297 50.3975 60.9957C50.8388 60.3677 51.4669 59.8414 51.5518 59.0606C51.6197 58.3816 51.4669 57.6856 51.2292 57.0576C51.0765 56.6502 50.8728 56.2597 50.5502 55.9542C50.007 55.445 49.1922 55.2243 48.4793 55.1564C47.7494 55.0885 47.0704 55.1394 46.3405 55.1055C46.0858 55.1055 45.967 55.2073 45.967 55.4789C45.967 55.8354 45.8991 56.1239 45.8991 56.4804ZM47.987 59.5698C47.9701 59.3831 47.987 57.8893 47.9531 57.3292C47.9361 57.1255 48.0549 57.0236 48.2756 57.0745C48.4454 57.1085 48.5812 57.1255 48.717 57.2273C49.1413 57.5498 49.4638 57.9403 49.4808 58.4835C49.4808 58.7551 49.4808 59.0266 49.379 59.2813C49.2601 59.5868 49.0904 59.8245 48.7849 59.9772C48.5812 60.0791 48.3944 60.1979 48.1907 60.2828C48.0889 60.3167 47.987 60.2658 47.9701 60.164C47.9701 59.9603 47.987 59.5698 47.987 59.5698ZM49.6845 64.0682C49.6845 64.1531 49.6675 64.3058 49.6675 64.4586C49.6506 64.9679 48.9885 65.6129 48.2247 65.6299C48.1738 65.6299 48.0889 65.579 48.0719 65.528C48.038 65.4262 48.004 65.3074 48.004 65.1885C47.987 64.6623 48.004 64.1531 48.004 63.5929C48.0549 63.2364 48.021 62.863 48.021 62.4895C48.038 62.201 48.1059 62.15 48.3775 62.0991C48.7849 62.0482 49.1583 62.2179 49.345 62.5404C49.5657 62.9309 49.6506 63.3552 49.6845 63.7966V64.0682ZM61.5457 56.8369C61.5287 57.8893 61.6306 65.579 61.6136 66.1391C61.6136 66.6653 61.6136 67.1916 61.6306 67.7178C61.6306 67.8027 61.6815 67.8875 61.7664 67.8875C62.9546 67.9385 64.1259 67.8366 65.3141 67.8536C65.7046 67.8706 66.095 67.8536 66.4684 67.8536C66.8419 67.8366 66.8758 67.6838 66.8589 67.3783C66.8419 66.903 66.8419 66.4786 66.8419 66.0203C66.8249 65.7827 66.6891 65.6978 66.4854 65.6978C65.7894 65.7148 65.0935 65.6808 64.3975 65.7148C64.2787 65.7317 64.1598 65.7317 64.041 65.7317C63.8373 65.7148 63.7864 65.6638 63.7694 65.4432V65.1885C63.7185 63.7796 63.8204 62.3198 63.8204 60.9109C63.8034 59.7226 63.8203 58.6532 63.8034 57.6008C63.8034 57.1424 63.8034 56.6841 63.7864 56.2428C63.7694 55.9712 63.7864 55.6826 63.7185 55.411C63.6846 55.3092 63.6336 55.1734 63.5148 55.1734H61.9192C61.6476 55.1734 61.5627 55.3601 61.5457 55.6317V56.8369ZM77.9901 67.7687C78.0411 67.7857 78.1938 67.7857 78.3466 67.7857C78.6861 67.7857 78.7879 66.5635 78.8219 66.3089C78.8389 66.1052 78.8898 66.0882 79.0595 66.0542C79.9083 65.9524 80.3327 66.0203 81.1814 66.0373C81.3681 66.0373 81.47 66.1221 81.5209 66.2749L81.6397 66.6653C81.7416 66.9539 81.8265 67.3104 81.9283 67.599C81.9962 67.8027 82.0132 67.7857 82.2169 67.7857C82.4885 67.7857 83.473 67.7857 83.7616 67.7687C84.152 67.7687 83.8804 66.9709 83.8295 66.8351C83.6767 66.3598 83.6428 65.8675 83.49 65.3922C83.4221 65.1885 81.487 56.0051 81.4021 55.4959C81.2833 55.1903 81.3851 55.1734 81.1135 55.1734C80.5364 55.1734 79.9253 55.2073 79.3311 55.1734C79.0935 55.1734 79.1105 55.2413 79.0765 55.4959C79.0426 55.7335 78.4315 58.4325 78.1938 59.5529C77.8883 60.9618 77.6167 62.3198 77.2772 63.7117C77.1584 64.204 76.3436 67.7517 76.4454 67.7687C76.4963 67.8027 76.5812 67.7857 76.6491 67.7857C77.0735 67.7857 77.4639 67.7857 77.9901 67.7687ZM80.2138 63.9154H79.8574C79.3821 63.9154 79.3651 63.9154 79.4839 63.4231C79.5688 63.0497 80.0271 61.0297 80.129 60.5374C80.1459 60.5035 80.1799 60.4695 80.1969 60.4695C80.2308 60.4695 80.2648 60.5035 80.2817 60.5204C80.3496 60.7241 80.4175 61.2334 80.4854 61.4371C80.6382 62.0821 80.7401 62.6253 80.8928 63.3213C81.0456 63.9324 80.9777 63.9324 80.6722 63.9324C80.5194 63.9324 80.3666 63.9154 80.2138 63.9154ZM100.681 64.7811C100.783 64.5605 100.868 64.3398 100.953 64.1191C101.14 63.5759 101.174 63.0157 101.224 62.4556C101.326 61.2673 101.292 60.0621 100.987 58.9078C100.613 57.431 99.6628 56.073 98.2369 55.445C97.5919 55.1564 96.8619 55.1224 96.166 55.1394C95.4361 55.1394 94.6892 55.1055 93.9592 55.1734C93.7555 55.1903 93.6537 55.2922 93.6197 55.4789C93.5858 55.6826 93.5518 55.8863 93.5518 56.073C93.5858 57.1085 93.5518 60.1809 93.5858 60.6902C93.6028 61.1485 93.5518 61.7087 93.5518 62.167C93.5688 63.3043 93.5518 64.4586 93.5518 65.5959C93.5518 66.0712 93.5349 66.5295 93.5349 67.0048C93.5349 67.5141 93.3481 67.7348 94.7401 67.7348C95.9793 67.7348 97.2693 67.6329 98.4406 67.1916C99.527 66.8011 100.206 65.7996 100.681 64.7811ZM95.7416 63.0157V60.9788C95.7416 59.6887 95.7756 58.8569 95.7246 57.7705V57.5668C95.7416 57.2103 95.7925 57.1934 96.166 57.1934C96.6582 57.1764 97.0147 57.2952 97.4391 57.465C97.8635 57.6347 98.1011 58.0082 98.3218 58.3646C98.7462 59.0606 98.9159 59.8245 98.9499 60.6223C98.9668 61.0806 98.9838 61.5389 98.9838 61.9973C98.9838 64.17 97.7107 65.6808 96.5903 65.6808C95.8435 65.6808 95.7246 65.7317 95.7246 65.2395C95.7246 64.7302 95.7586 64.221 95.7586 63.7117C95.7416 63.491 95.7416 63.2534 95.7416 63.0157ZM110.862 64.4247H110.845C110.845 64.849 110.828 65.2904 110.845 65.7317C110.862 66.2749 110.896 66.8181 110.93 67.3613C110.93 67.548 110.981 67.599 111.151 67.6329C111.507 67.7178 111.847 67.7348 112.203 67.7348C113.12 67.7008 114.036 67.7687 114.953 67.7348C115.326 67.7178 115.496 67.7517 115.87 67.6838C116.209 67.6159 116.328 67.4292 116.328 66.92C116.294 66.5974 116.311 66.4616 116.311 66.0712C116.311 65.5111 115.92 65.3243 115.581 65.3413C115.343 65.3583 114.206 65.3243 113.748 65.3243C112.984 65.3413 113.103 65.4432 113.103 64.6453C113.103 64.0003 113.12 63.1685 113.12 62.5065C113.12 62.15 113.154 62.0312 113.493 62.0312H115.615C115.954 62.0821 116.192 61.8445 116.192 61.488C116.192 61.1315 116.226 61.1146 116.226 60.7581L116.175 60.2488C116.141 59.9603 116.039 59.8584 115.751 59.8584C115.564 59.8584 115.377 59.8754 115.191 59.8924C114.461 59.9433 114.121 59.8414 113.408 59.8924C113.171 59.8924 113.137 59.8584 113.12 59.6377C113.052 58.9757 113.12 58.2458 113.188 57.5838C113.205 57.3122 113.272 57.2613 113.527 57.2443L115.92 57.2273C116.243 57.1934 116.345 57.2103 116.328 56.8878C116.294 56.3955 116.345 55.8863 116.294 55.394C116.26 55.1224 116.175 55.0715 115.87 55.0715C115.36 55.0885 115.242 55.0885 114.732 55.1224C114.223 55.1394 112.186 55.1394 111.694 55.1394C110.981 55.1394 110.93 55.0885 110.913 55.9542C110.879 56.6332 110.896 57.3292 110.896 58.0251C110.896 59.2134 110.828 63.4741 110.862 64.4247ZM132.603 57.1764C132.62 56.6162 132.603 56.1579 132.603 55.6147C132.603 54.9866 131.465 55.0545 131.058 55.0715C129.242 55.1903 127.51 56.3446 126.678 57.9233C126.441 58.3816 126.271 58.8569 126.152 59.3492C125.864 60.5035 125.847 61.7257 125.982 62.8969C126.101 64.0003 126.39 65.1037 127.069 65.9863C128.24 67.5311 130.396 68.0743 132.246 67.7857C132.331 67.7687 132.416 67.7517 132.484 67.7008C132.535 67.6669 132.586 67.599 132.586 67.5311L132.637 66.5635C132.653 66.2579 132.637 66.2749 132.637 65.9694C132.637 65.562 131.788 65.8675 131.262 65.8675C130.752 65.8675 130.209 65.8505 129.751 65.6129C128.936 65.1546 128.478 64.2379 128.223 63.3722C127.934 62.4386 127.867 61.4371 128.036 60.4865C128.24 59.2473 128.834 57.8214 130.141 57.3971C130.888 57.1424 131.686 57.2273 132.433 57.3122C132.535 57.3292 132.603 57.2613 132.603 57.1764ZM144.311 66.6314C144.311 66.19 144.311 63.4062 144.328 63.1855C144.345 63.1346 144.379 63.0327 144.447 63.0327C144.515 63.0327 144.549 63.0667 144.566 63.1176C145.245 64.4416 145.839 65.7657 146.45 67.0558C146.535 67.2425 146.721 67.7857 146.772 67.8366C146.84 67.9385 146.959 67.9045 147.061 67.9045L148.928 67.9215C149.149 67.9215 149.2 67.7857 149.149 67.599C149.013 67.0897 148.045 65.2904 147.825 64.849C147.672 64.5095 146.654 62.5404 146.62 62.3877C146.586 62.3198 146.84 62.201 146.874 62.15C147.689 61.4201 148.419 60.6732 148.572 59.5359C148.741 58.4156 148.487 57.1934 147.757 56.2937C147.197 55.6317 146.467 55.2413 145.601 55.1903C145.075 55.1564 144.566 55.2073 144.039 55.1903C143.581 55.1734 143.259 55.1734 142.681 55.1734C142.41 55.1734 142.24 55.3261 142.223 55.6147V55.8184C142.189 57.1255 142.223 58.4325 142.24 59.7226C142.24 61.6917 142.206 66.886 142.206 67.6329C142.206 67.8536 142.24 67.9045 142.444 67.9045C142.563 67.9045 142.698 67.9215 142.817 67.9215C143.292 67.9215 143.581 67.9045 144.073 67.9045C144.447 67.9045 144.311 67.2934 144.311 66.6314ZM144.311 60.0112L144.328 58.2967C144.345 58.0421 144.26 57.5329 144.498 57.3461C144.82 57.1085 145.482 57.3461 145.771 57.5498C146.62 58.127 146.552 59.5529 146.093 60.3507C145.873 60.7241 145.499 60.9448 145.075 61.0636C144.82 61.1315 144.345 61.2164 144.328 60.809C144.328 60.5374 144.311 60.0112 144.311 60.0112ZM160.297 67.7687C160.348 67.7857 160.501 67.7857 160.654 67.7857C160.993 67.7857 161.095 66.5635 161.129 66.3089C161.146 66.1052 161.197 66.0882 161.366 66.0542C162.215 65.9524 162.64 66.0203 163.488 66.0373C163.675 66.0373 163.777 66.1221 163.828 66.2749L163.947 66.6653C164.049 66.9539 164.133 67.3104 164.235 67.599C164.303 67.8027 164.32 67.7857 164.524 67.7857C164.795 67.7857 165.78 67.7857 166.069 67.7687C166.459 67.7687 166.187 66.9709 166.136 66.8351C165.984 66.3598 165.95 65.8675 165.797 65.3922C165.729 65.1885 163.794 56.0051 163.709 55.4959C163.59 55.1903 163.692 55.1734 163.42 55.1734C162.843 55.1734 162.232 55.2073 161.638 55.1734C161.4 55.1734 161.417 55.2413 161.383 55.4959C161.35 55.7335 160.738 58.4325 160.501 59.5529C160.195 60.9618 159.924 62.3198 159.584 63.7117C159.465 64.204 158.651 67.7517 158.752 67.7687C158.803 67.8027 158.888 67.7857 158.956 67.7857C159.38 67.7857 159.771 67.7857 160.297 67.7687ZM162.521 63.9154H162.164C161.689 63.9154 161.672 63.9154 161.791 63.4231C161.876 63.0497 162.334 61.0297 162.436 60.5374C162.453 60.5035 162.487 60.4695 162.504 60.4695C162.538 60.4695 162.572 60.5035 162.589 60.5204C162.657 60.7241 162.724 61.2334 162.792 61.4371C162.945 62.0821 163.047 62.6253 163.2 63.3213C163.353 63.9324 163.285 63.9324 162.979 63.9324C162.826 63.9324 162.674 63.9154 162.521 63.9154ZM175.859 64.4247H175.842C175.842 64.849 175.825 65.2904 175.842 65.7317C175.859 66.2749 175.876 66.8181 175.91 67.3613C175.927 67.548 175.961 67.599 176.147 67.6329C176.487 67.7178 176.843 67.7348 177.2 67.7348C178.116 67.7008 178.116 67.548 178.116 66.92C178.082 66.5974 178.099 66.4616 178.099 66.0712C178.099 65.5111 178.082 65.4432 178.082 64.6453C178.099 64.0003 178.099 63.1685 178.099 62.5065C178.099 62.15 178.15 62.0312 178.473 62.0312H180.951C181.308 62.0821 181.172 61.8445 181.172 61.488C181.172 61.1315 181.223 61.1146 181.206 60.7581C181.206 60.5883 181.172 60.4186 181.155 60.2488C181.121 59.9603 181.019 59.8584 180.731 59.8584C180.544 59.8584 180.714 59.8754 180.544 59.8924C179.814 59.9433 179.118 59.8414 178.388 59.8924C178.15 59.8924 178.116 59.8584 178.099 59.6377C178.049 58.9757 178.099 58.2458 178.167 57.5838C178.201 57.3122 178.252 57.2613 178.507 57.2443L180.9 57.2273C181.24 57.1934 181.342 57.2103 181.308 56.8878C181.274 56.3955 181.342 55.8863 181.274 55.394C181.24 55.1224 181.172 55.0715 180.866 55.0715C180.357 55.0885 180.238 55.0885 179.729 55.1224C179.22 55.1394 177.166 55.1394 176.674 55.1394C175.978 55.1394 175.91 55.0885 175.893 55.9542C175.876 56.6332 175.876 57.3292 175.876 58.0251C175.876 59.2134 175.808 63.4741 175.859 64.4247ZM193.033 66.0542C193.05 66.5805 193.05 67.1067 193.067 67.6329C193.067 67.8706 193.084 67.9045 193.322 67.9045H194.849C195.172 67.9045 195.104 67.3613 195.087 67.0727L195.138 57.5668C195.138 57.3122 195.223 57.2273 195.562 57.2273H197.056C197.413 57.2273 197.328 56.6162 197.328 56.1918C197.328 55.8184 197.464 55.1734 197.056 55.1734C196.768 55.1734 194.001 55.1734 192.863 55.1903C192.303 55.1903 191.845 55.1734 191.285 55.1734C190.86 55.1734 190.877 55.5128 190.877 56.2597C190.877 56.735 190.86 57.2103 191.268 57.2103C191.505 57.2103 192.473 57.2103 192.745 57.2273C192.914 57.2273 193.033 57.2782 193.067 57.465C193.067 57.5159 193.084 57.5668 193.084 57.6177C193.084 58.8399 192.999 64.5265 193.033 66.0542Z" fill="#111111"/>
</g>
<defs>
<clipPath id="clip0_126_2">
<rect width="226.2" height="88.5373" fill="white"/>
</clipPath>
</defs>
</svg>
